<?xml version="1.0" encoding="utf-8"?>
<!-- Generator: Adobe Illustrator 27.0.0, SVG Export Plug-In . SVG Version: 6.00 Build 0)  -->
<svg version="1.1" xmlns="http://www.w3.org/2000/svg" xmlns:xlink="http://www.w3.org/1999/xlink" x="0px" y="0px"
	 viewBox="0 0 128 130" style="enable-background:new 0 0 128 130;" xml:space="preserve">
<style type="text/css">
	.st0{fill:#5FCBD0;}
	.st1{fill:#F4D3C9;}
	.st2{fill:#EADFD0;}
	.st3{fill:#99A0BF;}
	.st4{fill:#9B9B53;}
	.st5{fill:#221F20;}
</style>
<g id="Layer_7">
	<rect x="-15.06" y="-10.81" class="st0" width="150.11" height="150.49"/>
</g>
<g id="Layer_3">
	<path class="st1" d="M34.44,135.2c0.32-0.08,2.65-14.71,2.49-21.7c-0.16-6.99-1.61-12.3-1.61-12.54s-5.3-12.54-5.38-17.2
		c-0.08-4.66-0.32-7.56-0.32-7.56c0.16,0-6.59,0.88-9.56-1.37c-2.97-2.25-4.98-5.47-4.98-11.17s-2.09-12.62-1.69-13.42
		c0.4-0.8,0.72-3.38,3.13-3.54c2.41-0.16,6.19,1.85,6.19,1.85s-0.8-1.04-1.04-4.98c-0.24-3.94-2.41-19.53,0.8-25.48
		S34.77,0.9,41.92-2.4h35.61c0,0,2.25,0,5.55,1.21c3.3,1.21,15.75,8.92,18.89,14.79c3.13,5.87,5.63,17.92,4.98,23.79
		S105.41,48,105.41,48s4.74-2.89,6.67-0.32s0.96,17.44-2.25,22.18s-7.8,7.07-10.13,6.59c0,0-4.26,18.73-6.83,21.38
		c0,0-3.54,12.62-2.57,17.92c0.96,5.3,2.33,15.99,2.41,15.67C92.79,131.1,34.44,135.2,34.44,135.2z"/>
</g>
<g id="Layer_4">
	<path class="st2" d="M87.32,89.96c0-1.42-0.21-10.17-1.92-12.45c-1.71-2.28-9.82-6.76-12.45-6.97c-2.63-0.21-4.13,1.49-6.47,2.63
		s-3.77-1.07-6.62-2.35c-2.85-1.28-5.12,0.43-9.46,2.56c-4.34,2.13-5.98,8.39-7.26,13.52c-1.28,5.12,2.19,21.3,3.7,25.75
		c1.14,3.34,12.09,5.12,20.77,5.26s19.13-11.52,19.06-11.38S87.32,91.38,87.32,89.96z M78.65,91.65c-2.91,1.39-9.67,3.06-13.16,3.06
		s-17.99-1.14-17.58-9.02c0,0-0.18-1.81,3.17-1.98c3.34-0.17,13.37,0.31,15.01,0.27c2.97-0.06,15.3-0.74,15.82,0.22
		C82.43,85.17,81.56,90.25,78.65,91.65z"/>
</g>
<g id="Layer_5">
	<path class="st3" d="M45.1,44.32c2.61-0.28,4.94,0.85,5.36,1.34c0.42,0.49-0.78,3.6-2.4,3.95c-1.62,0.35-3.95,0.28-5.43-0.85
		c-1.48-1.13-1.76-2.82-1.55-3.1C41.29,45.38,42.49,44.6,45.1,44.32z"/>
	<path class="st3" d="M80.02,43.89c2.26-0.08,4.73,0.71,4.59,2.05c-0.14,1.34-1.48,2.96-3.74,2.96c-2.26,0-4.23-1.06-4.8-2.4
		C75.51,45.16,78.05,43.96,80.02,43.89z"/>
</g>
<g id="Layer_6">
	<path class="st4" d="M34.54,140.17c0,0,2.38-16.66,2.6-23.36c0.22-6.71-2.27-16.44-1.84-16.55c0.43-0.11-0.11-0.97-3.57-0.87
		c-3.46,0.11-7.57,1.73-8.65,3.03c-1.08,1.3-10.38,17.52-10.71,17.3c-0.32-0.22-24.23,9.08-24.23,8.76c0-0.32,8.11,15.9,8.11,15.25
		C-3.75,143.09,34.65,140.17,34.54,140.17z"/>
	<path class="st4" d="M94.02,136.17c0-0.32-4.11-21.52-3.68-27.79s1.41-6.92,1.41-6.92s8.33,0.22,11.14,1.95
		c2.81,1.73,12.44,16.33,12.44,16.33l23.47,7.03c0,0-3.14,11.57-3.03,11.25C135.88,137.68,94.02,136.17,94.02,136.17z"/>
</g>
<g id="Layer_2">
	<g>
		<path class="st5" d="M39.52,48.74c0.38-0.57,0.83-1.05,1.32-1.47c-0.02,0.28-0.01,0.56,0.07,0.81c0.34,1.1,1.5,1.99,2.5,2.45
			c0.9,0.42,1.94,0.61,2.93,0.53c1.06-0.08,2.11-0.4,2.96-1.06c0.61-0.47,1.24-1.13,1.62-1.85c0.17,0.29,0.32,0.6,0.44,0.9
			c0.27,0.7,1.09,1,1.8,0.89c0.57-0.09,1.4-0.62,1.13-1.32c-1.18-3.01-3.9-5.26-7.19-5.47c-3.76-0.23-7.92,1.06-10.09,4.3
			C36.03,48.9,38.73,49.92,39.52,48.74z M46.77,45.4c0.15,0.01,0.31,0.02,0.46,0.03c0.04,0,0.18,0.03,0.23,0.03
			c0.12,0.03,0.24,0.07,0.37,0.1c0.04,0.01,0.33,0.12,0.13,0.05c-0.2-0.08,0.12,0.05,0.16,0.06c0.12,0.05,0.24,0.1,0.35,0.16
			c0.21,0.1,0.42,0.21,0.62,0.32c0.04,0.03,0.08,0.07,0.12,0.09c-0.04,0.07-0.07,0.14-0.1,0.22c0,0,0,0,0,0
			c-0.03,0.05-0.11,0.15-0.1,0.14c-0.07,0.09-0.14,0.19-0.22,0.28c-0.12,0.14-0.26,0.28-0.39,0.42c-0.02,0.02-0.05,0.05-0.07,0.08
			c0.01-0.01,0.01-0.02,0.03-0.04c0.16-0.19-0.04,0.02-0.09,0.06c-0.17,0.13-0.35,0.23-0.54,0.33c-0.02,0.01-0.02,0.01-0.03,0.02
			c0,0,0,0-0.02,0.01c-0.08,0.03-0.16,0.07-0.24,0.09c-0.2,0.07-0.4,0.13-0.61,0.17c-0.09,0.02-0.17,0.03-0.26,0.05
			c-0.03,0.01-0.06,0.01-0.1,0.01c-0.01,0,0,0-0.02,0c-0.39,0.02-0.78,0.01-1.16-0.05c-0.09-0.01-0.17-0.03-0.26-0.05
			c-0.03-0.01-0.05-0.01-0.06-0.01c-0.02-0.01-0.03-0.01-0.05-0.02c-0.18-0.06-0.37-0.12-0.55-0.2c-0.18-0.08-0.35-0.16-0.52-0.26
			c-0.03-0.02-0.16-0.1-0.17-0.11c-0.05-0.03-0.09-0.07-0.14-0.11c-0.15-0.12-0.29-0.25-0.43-0.39c-0.02-0.02-0.07-0.09-0.1-0.13
			c-0.05-0.09-0.11-0.23-0.06-0.06c-0.07-0.22-0.2-0.41-0.36-0.55C43.87,45.59,45.31,45.34,46.77,45.4z"/>
		<path class="st5" d="M74.84,46.57c0.25,0.79,0.73,1.49,1.39,2.08c1,0.89,2.3,1.33,3.63,1.4c1.59,0.09,3.1-0.29,4.34-1.33
			c0.52-0.44,0.95-0.97,1.32-1.53c0.1,0.13,0.21,0.25,0.3,0.38c0.27,0.39,0.38,0.59,0.55,1.07c0.03,0.09,0.11,0.45,0.12,0.45
			c0.01,0.19,0.01,0.47,0.04,0.08c-0.16,1.95,2.33,1.35,2.45-0.21c0.22-2.73-2.07-5.22-4.47-6.15c-1.91-0.74-4.23-0.73-6.22-0.35
			c-1.66,0.31-3.52,0.87-4.71,2.15c-0.46,0.49-0.81,1.37-0.35,1.98C73.64,47.12,74.38,46.95,74.84,46.57z M78.96,47.13
			C78.9,47.09,78.91,47.1,78.96,47.13L78.96,47.13z M81.94,47.51C81.89,47.53,81.88,47.53,81.94,47.51L81.94,47.51z M83.26,45.5
			c0.11,0.04,0.22,0.11,0.33,0.16c-0.01,0.02-0.03,0.03-0.04,0.05c-0.08,0.14-0.15,0.28-0.24,0.42c-0.01,0.01-0.02,0.04-0.04,0.06
			c0.01-0.02,0.02-0.02,0.04-0.05c-0.05,0.08-0.1,0.16-0.16,0.24c-0.11,0.16-0.23,0.32-0.36,0.48c-0.06,0.07-0.12,0.13-0.17,0.19
			c-0.01,0.01-0.01,0.01-0.04,0.03c-0.08,0.07-0.17,0.14-0.25,0.21c-0.02,0.02-0.02,0.02-0.03,0.03c-0.08,0.04-0.16,0.09-0.24,0.14
			c-0.04,0.02-0.08,0.04-0.11,0.05c-0.1,0.03-0.19,0.06-0.29,0.09c-0.02,0.01-0.03,0.01-0.05,0.02c-0.02,0-0.04,0-0.08,0
			c-0.28,0.02-0.53,0.04-0.73,0.03c-0.57-0.04-1.09-0.15-1.6-0.38c-0.08-0.03-0.15-0.07-0.22-0.11c0,0,0,0-0.01,0
			c-0.14-0.1-0.29-0.2-0.42-0.32c-0.16-0.14-0.32-0.29-0.46-0.45c-0.01-0.01-0.12-0.15-0.13-0.17c-0.05-0.08-0.11-0.16-0.16-0.24
			c-0.06-0.1-0.12-0.2-0.17-0.31c-0.01-0.02-0.07-0.17-0.09-0.2c-0.01-0.04-0.02-0.09-0.03-0.13c0.21-0.05,0.41-0.1,0.63-0.14
			C79.81,44.93,81.67,44.9,83.26,45.5z"/>
		<path class="st5" d="M83.28,46.19C83.18,46.32,83.23,46.26,83.28,46.19L83.28,46.19z"/>
		<path class="st5" d="M77.25,82.21c-3.69-0.03-7.37,0.17-11.06,0.25c-3.16,0.06-6.33-0.18-9.5-0.23c-1.89-0.03-3.79-0.05-5.68,0.06
			c-1.05,0.06-2.41,0.08-3.26,0.78c-1.15,0.94-1.2,2.81-0.94,4.15c1.45,7.69,11.64,8.87,17.88,8.9c6.41-0.03,15.49-1.02,18.26-7.95
			c0.53-1.33,0.89-3.1,0.34-4.49C82.51,81.76,78.85,82.22,77.25,82.21z M81.05,85.43c0,0.01,0,0-0.01-0.03c0,0,0,0,0,0
			C81.04,85.41,81.05,85.42,81.05,85.43z M48.74,85.36c-0.03,0.02-0.05,0.03-0.06,0.02C48.68,85.37,48.7,85.36,48.74,85.36z
			 M81.03,86.69c-0.1,0.55-0.47,1.4-0.73,1.78c-0.64,0.94-1.41,1.61-2.4,2.23c-3.58,2.23-8.26,2.58-12.37,2.6
			c-5.14-0.02-13.55-0.53-15.97-6.09c-0.29-0.67-0.37-0.98-0.44-1.79c0.01,0.07,0.01,0,0.01-0.13c0.26-0.04,0.57-0.09,0.72-0.1
			c1.5-0.16,3.02-0.15,4.52-0.14c3.21,0.02,6.41,0.19,9.61,0.25c2.79,0.05,5.58-0.14,8.36-0.2c2.91-0.07,5.81-0.12,8.68,0.32
			c0,0.02,0,0.04,0.01,0.06C81.1,85.95,81.12,86.21,81.03,86.69z"/>
		<path class="st5" d="M23.17,59.86c1.14-1.48-1.49-2.32-2.38-1.17c-0.6,0.77-1.22,1.57-1.6,2.47c-0.44,1.04-0.5,2.08-0.45,3.2
			c0.09,1.71,0.5,3.54,1.89,4.67c0.58,0.47,1.49,0.43,2.09,0.01c0.52-0.36,0.82-1.14,0.24-1.61c-0.44-0.36-0.76-0.87-0.92-1.39
			c-0.21-0.67-0.3-1.38-0.35-2.08c-0.05-0.76-0.02-1.57,0.28-2.24C22.29,61,22.7,60.47,23.17,59.86z"/>
		<path class="st5" d="M105.41,68.49c0.82-1.01,1.66-2,2.44-3.03c0.78-1.02,1.12-2.09,1.05-3.38c-0.13-2.44-1.12-4.61-3.23-5.92
			c-0.62-0.38-1.6-0.2-2.1,0.31c-0.51,0.53-0.36,1.21,0.23,1.57c1.55,0.96,2.04,2.75,2.13,4.48c0.04,0.82-0.23,1.45-0.73,2.08
			c-0.69,0.89-1.42,1.75-2.13,2.63C101.9,68.68,104.49,69.63,105.41,68.49z"/>
		<path class="st5" d="M134.02,124.72c-0.24-0.26-0.48-0.52-0.72-0.78c-0.51-0.55-1.36-0.72-2.05-0.4c-0.01,0-0.01,0.01-0.02,0.01
			c-5.14-1.74-10.32-3.36-15.55-4.84c-1.86-3.11-3.71-6.22-5.59-9.31c-1.44-2.37-3.02-4.55-5.26-6.16
			c-0.26-0.41-0.57-0.78-0.95-1.09c-1.39-1.15-3.29-1.36-5.02-1.55c-1.92-0.21-3.84-0.3-5.77-0.3c0.25-0.92,0.53-1.83,0.83-2.73
			c0.02-0.07,0.03-0.12,0.04-0.18c0.35-0.61,0.68-1.22,1-1.84c1.46-2.78,2.33-5.73,3.07-8.77c0.77-3.17,1.52-6.35,2.18-9.55
			c3.87,0.89,7.45-1.53,9.41-4.77c2.25-3.72,3.76-8.31,4.64-12.54c0.82-3.92,1.04-8.84-1.28-12.34c-1.02-1.54-2.67-2.46-4.51-2.43
			c-0.25,0-0.5,0.03-0.74,0.07c-0.03-0.06-0.05-0.11-0.09-0.16c0.02-0.36,0.04-0.7,0.07-0.96c0.14-1.13,0.26-2.26,0.36-3.39
			c0.2-2.26,0.31-4.54,0.29-6.81c-0.04-4.16-0.48-8.33-1.62-12.35c-2.11-7.48-6.44-13.76-12.85-18.17C90.17,0.8,86.07-1.11,82-3.02
			c-1.56-0.73-2.87,1.2-1.1,2.03c6.52,3.06,13.33,6.33,17.79,12.21c4.42,5.82,6.3,13.15,6.65,20.35c0.12,2.41,0.05,4.83-0.12,7.23
			c-0.09,1.22-0.2,2.43-0.34,3.64c-0.02,0.16-0.04,0.33-0.06,0.49c-0.17-0.13-0.34-0.25-0.52-0.38c-0.49-0.36-0.98-0.72-1.47-1.08
			c0.46-0.76,0.48-1.77-0.34-1.96c-2.56-0.56-5.06-1.23-7.67-1.54c-2.62-0.31-5.25-0.41-7.89-0.42c-2.65-0.01-5.32-0.01-7.98,0.12
			c-2.4,0.12-4.59,0.64-6.92,1.17c-2.25,0.51-4.61,0.75-6.9,0.98c-2.17,0.21-4.19-0.11-6.26-0.65c-0.27-0.1-0.57-0.17-0.87-0.22
			c-4.86-1.28-9.87-1.79-14.89-1.78c-5.93,0.02-11.84,0.71-17.71,1.49c-1.1,0.15-1.5,1.95-0.77,2.6c-0.57,0.78-0.96,1.73-1.26,2.71
			c-1.26-6.24-2.25-12.64-1.42-18.97c0.9-6.92,4.52-12.55,9.26-17.51c2.68-2.81,5.65-5.37,8.93-7.46c1.2-0.77,0.44-3.66-0.88-2.82
			c-6.09,3.88-11.57,9.23-15.4,15.36c-4.13,6.6-4.92,14.43-4.21,22.05c0.37,3.98,1.13,7.9,1.94,11.81
			c-2.54-1.03-5.26-1.42-7.69,0.39c-1.37,1.02-2.2,2.57-2.14,4.29c0.07,1.96,1.23,3.61,1.81,5.43c1.2,3.76,0.39,7.83,1.04,11.68
			c0.56,3.3,2.19,6.06,4.98,7.92c2.71,1.81,6.03,2.36,9.17,1.64c0.21,4.06,0.08,8.14,0.94,12.17c0.61,2.84,1.51,5.62,2.69,8.28
			c-3.14-0.05-6.5,0.43-9.12,2.1c-1.22,0.78-2.27,1.9-2.71,3.3c-0.06,0.18-0.09,0.35-0.13,0.53c-1.3,2.52-3.03,4.88-4.54,7.25
			c-0.88,1.39-1.76,2.78-2.64,4.17c-0.56,0.88-1.24,1.77-1.67,2.75c-4.9,1.65-9.71,3.57-14.4,5.75c-0.52,0.1-0.96,0.37-1.36,0.79
			c-0.85,0.88-0.37,2.64,1.03,1.98c0.16-0.08,0.32-0.15,0.49-0.22c0.05-0.02,0.09-0.04,0.13-0.06c4.49-2.09,9.09-3.94,13.78-5.55
			c0.18,0.78,0.55,1.52,0.9,2.27c0.65,1.39,1.33,2.76,2.04,4.11c1.5,2.84,3.15,5.61,4.91,8.29c0.5,0.76,1.59,0.34,2.01-0.26
			c0.16-0.23,0.33-0.47,0.49-0.7c0.81-1.15-0.01-2.24-0.93-2.02c-1.3-2.03-2.55-4.09-3.7-6.2c-0.66-1.21-1.29-2.44-1.89-3.67
			c-0.53-1.08-1.78-2.78-1.23-3.98c0.59-1.31,1.58-2.54,2.35-3.76c0.79-1.25,1.59-2.5,2.38-3.76c0.75-1.18,1.55-2.35,2.31-3.54
			c0.14,0.36,0.3,0.72,0.47,1.06c1.9,3.83,4.1,7.54,6.15,11.3c1.97,3.61,4.69,7.42,5.31,11.55c0.12,0.83,0.96,0.99,1.71,0.75
			c0.1,0.08,0.21,0.14,0.35,0.17c0.7,0.15,1.32-0.6,1.42-1.22c0.91-5.79,1.23-11.68,1.47-17.53c0.05-1.17,0.03-2.34-0.01-3.51
			c-0.04-1.16-0.09-2.36-0.18-3.55c2.12,2.65,4.59,5.01,7.41,6.96c7.94,5.49,18.37,7.03,27.56,4.1c4.91-1.57,9.11-4.54,12.57-8.33
			c1.54-1.69,3.02-3.49,4.4-5.37c-0.15,1.24-0.21,2.5-0.17,3.79c0.08,2.37-0.05,4.73,0.12,7.1c0.38,5.06,1.08,10.1,1.65,15.14
			c0.04,0.36,0.22,0.6,0.47,0.75c-0.69,0.86-1.38,1.71-2.04,2.56c-0.4,0.51-0.37,1.41,0.26,1.72c0.71,0.34,1.45-0.26,1.85-0.77
			c5.17-6.61,11.37-13.28,13.43-21.64c0.33-1.34,0.68-3.09,0.73-4.83c0.66,0.92,1.25,1.89,1.82,2.83c1.72,2.85,3.43,5.71,5.14,8.56
			c1.59,2.64,3.6,5.53,1.73,8.55c-1.66,2.68-3.95,5.08-6.2,7.26c-0.83,0.8,0.5,1.75,1.25,1.72c0.33-0.01,0.67-0.02,1-0.04
			c1.12-0.04,1.58-0.88,1.36-1.53c2.1-2.1,4.2-4.42,5.61-6.99c1.28-2.33,0.74-4.62-0.29-6.78c4.93,1.44,9.83,3,14.69,4.68
			c0.58,0.2,1.3,0.23,1.82-0.18C134.18,125.77,134.41,125.14,134.02,124.72z M-3.21,126.74c0.01-0.01,0.02-0.02,0.02-0.02
			c0.02,0,0.03-0.01,0.05-0.01C-3.16,126.72-3.18,126.73-3.21,126.74z M76.1,40.78c2.53-0.33,5.11-0.28,7.65-0.31
			c2.88-0.03,5.76-0.02,8.63,0.22c2.17,0.18,4.26,0.58,6.36,1.03c-0.17,4-1.07,8.19-3.06,11.68c-1.08,1.89-2.66,2.57-4.77,2.74
			c-2.12,0.17-4.26,0.2-6.38,0.14c-2.15-0.06-4.3-0.23-6.43-0.51c-1.97-0.26-4.01-0.52-5.45-2.01c-1.26-1.3-1.99-3.1-2.6-4.77
			c-0.74-2-1.32-4.07-1.71-6.17c-0.03-0.16-0.07-0.34-0.14-0.51c0.38-0.05,0.75-0.11,1.12-0.16C71.61,41.85,73.8,41.08,76.1,40.78z
			 M56.42,41.61c0.83,0.21,1.66,0.44,2.48,0.64c-0.02,0.14-0.04,0.31-0.05,0.46c-0.18,1.89-0.26,3.79-0.48,5.68
			c-0.23,1.94-0.75,3.98-2.13,5.44c-1.32,1.4-3.19,2.09-5.05,2.43c-4.15,0.75-8.88,0.48-13.01-0.27c-2.2-0.4-4.39-1.03-6.39-2.02
			c-0.79-0.39-1.89-0.82-2.27-1.67c-0.47-1.04-0.51-2.42-0.69-3.54c-0.21-1.31-0.39-2.63-0.54-3.95c-0.08-0.7-0.45-2.15,0.21-2.69
			c0.5-0.41,1.49-0.57,2.09-0.74c1.23-0.36,2.47-0.61,3.74-0.75c0.19-0.02,0.34-0.08,0.47-0.17C42.04,39.82,49.36,39.82,56.42,41.61
			z M34.47,102.64c1.13,3.62,1.18,7.77,1.03,11.54c-0.18,4.34-0.4,8.7-0.89,13.03c-0.82-1.98-1.93-3.86-2.96-5.75
			c-1.84-3.37-3.68-6.75-5.52-10.12c-1.24-2.27-4.59-6.58-1.9-8.9c2.35-2.03,6.48-1.96,9.37-1.74c0,0,0,0,0.01,0
			c0.26,0.49,0.53,0.97,0.81,1.45C34.41,102.32,34.42,102.48,34.47,102.64z M32.3,91.16c-0.66-2.48-1.04-5.03-1.18-7.59
			c-0.17-3.15-0.03-6.32-0.4-9.46c-0.73-6.14-3.56-11.82-3.92-18.02c-0.11-1.88-2.34-1.59-2.23,0.26
			c0.34,5.83,2.86,11.17,3.76,16.88c0.11,0.69,0.19,1.37,0.26,2.06c-2.81,0.58-5.87-0.31-8.05-2.14c-2.96-2.49-3.5-6.07-3.6-9.74
			c-0.05-1.98-0.01-3.98-0.3-5.94c-0.3-1.98-1.11-3.64-1.82-5.49c-0.7-1.82-0.47-3.43,1.68-3.78c2.01-0.33,4.03,0.87,5.73,1.78
			c1.11,0.59,2.62-1.17,2.01-2.12c0.41-0.24,0.75-0.62,0.87-1.07c0.24-0.92,0.47-1.85,0.75-2.77c0.06,0.6,0.15,1.17,0.21,1.68
			c0.18,1.48,0.4,2.95,0.66,4.41c0.27,1.48,0.46,3.07,1.4,4.3c1.52,1.99,4.59,3.01,6.9,3.69c2.73,0.81,5.59,1.18,8.44,1.33
			c2.67,0.13,5.4,0.18,8.05-0.24c2.36-0.37,4.71-1.2,6.38-2.98c1.71-1.83,2.42-4.25,2.75-6.68c0.17-1.28,0.21-2.57,0.32-3.85
			c0.65-0.89,2.21-0.93,2.91-0.93c0.66,0,1.95-0.06,2.77,0.9c0.64,2.66,1.52,5.29,2.83,7.66c0.77,1.39,1.76,2.73,3.07,3.65
			c1.43,1,3.12,1.37,4.83,1.62c4.02,0.6,8.1,0.79,12.16,0.6c1.73-0.08,3.58-0.12,5.17-0.89c1.52-0.73,2.46-2.06,3.2-3.53
			c1.73-3.41,2.74-7.2,3.04-11.02c0.2,0.15,0.4,0.29,0.6,0.44c0.91,0.67,1.83,1.34,2.74,2.01c0.02,0.16,0.07,0.32,0.16,0.48
			c-0.52,0.37-1.01,0.77-1.47,1.18c-1.4,1.24,0.97,2.63,2.07,1.66c0.94-0.83,2.49-2.39,3.89-2.1c1.35,0.28,1.98,2.16,2.32,3.3
			c0.96,3.32,0.6,6.89-0.25,10.19c-0.83,3.19-1.99,6.42-3.45,9.38c-1.24,2.53-3.69,5.61-6.89,4.68c0,0-0.01,0-0.01,0
			c1.19-6.33,1.86-12.75,1.22-19.19c-0.19-1.86-2.42-1.6-2.23,0.26c0.58,5.84,0,11.7-1.05,17.46c-0.53,2.92-1.2,5.82-1.88,8.71
			c-0.64,2.7-1.21,5.44-2.12,8.07c-1.57,4.52-4.46,8.77-7.41,12.6c0.07-3.05,0.18-6.1,0.29-9.16c0.14-3.99,0.53-8.14,0.08-12.12
			c-0.75-6.61-6.54-9.95-12.47-11.6c1.14-1.16,1.69-2.91,1.4-4.51c-0.19-1.04-0.65-2-1.44-2.71c-1.06-0.95-2.58-1.46-3.98-1.02
			c-0.57,0.18-1.32,0.72-1,1.42c0.3,0.65,1.21,0.92,1.87,0.72c0.05-0.02,0.1-0.03,0.15-0.04c0.01,0,0.01,0,0.02,0c0,0,0,0,0,0
			c0.02,0.01,0.04,0.02,0.08,0.03c0.03,0.01,0.06,0.03,0.1,0.04c0.02,0.01,0.03,0.01,0.04,0.01c0.01,0.01,0.01,0.01,0.02,0.02
			c0.09,0.06,0.18,0.12,0.26,0.18c0.05,0.04,0.12,0.1,0.13,0.12c0.05,0.05,0.1,0.1,0.15,0.16c0.06,0.07,0.11,0.14,0.16,0.21
			c0.02,0.03,0.04,0.06,0.05,0.08c0.07,0.14,0.15,0.27,0.21,0.42c0.07,0.16,0.11,0.33,0.17,0.49c0,0.01,0.01,0.02,0.01,0.02
			c0,0.01,0,0.01,0,0.02c0.01,0.1,0.03,0.2,0.04,0.3c0.02,0.17,0.03,0.35,0.02,0.52c0,0.09,0,0.18-0.01,0.26
			c0,0.02-0.01,0.09-0.01,0.14c-0.01,0.05-0.02,0.14-0.03,0.16c-0.02,0.09-0.04,0.17-0.06,0.26c-0.05,0.17-0.1,0.33-0.17,0.5
			c-0.03,0.08-0.08,0.16-0.11,0.24c0,0,0,0,0,0c-0.01,0.01-0.01,0.01-0.02,0.03c-0.09,0.15-0.18,0.29-0.29,0.43
			c-0.05,0.07-0.11,0.13-0.16,0.19c-0.01,0.01-0.01,0.01-0.02,0.02c-0.07,0.06-0.14,0.11-0.21,0.17c-0.22-0.06-0.45-0.08-0.65-0.07
			c-1.9,0.09-2.91,1.44-4.26,2.54c-1,0.81-2.52,1-3.76,0.76c-1.52-0.29-2.51-1.76-3.92-2.33c-1.59-0.64-3.39-0.42-4.89,0.34
			c-0.01-0.02-0.03-0.03-0.04-0.05c-0.07-0.1-0.13-0.21-0.2-0.31c-0.03-0.06-0.05-0.12-0.08-0.19c-0.05-0.12-0.08-0.24-0.12-0.36
			c0-0.01-0.01-0.03-0.02-0.04c-0.02-0.04-0.02-0.11-0.02-0.15c-0.04-0.3-0.05-0.59-0.03-0.89c0.01-0.14,0.02-0.29,0.04-0.43
			c0-0.03,0.01-0.06,0.01-0.08c0.01-0.06,0.02-0.13,0.04-0.19c0.06-0.28,0.17-0.53,0.27-0.79c0.01-0.02,0.02-0.04,0.02-0.05
			c0.04-0.06,0.08-0.13,0.13-0.19c0.01-0.02,0.13-0.18,0.22-0.27c0.01-0.01,0.02-0.01,0.05-0.03c0.06-0.04,0.12-0.08,0.18-0.12
			c0.03-0.02,0.03-0.02,0.04-0.03c0.07-0.02,0.18-0.05,0.2-0.05c0.66-0.18,0.9-0.97,0.5-1.51c-0.46-0.62-1.28-0.87-2.01-0.67
			c-0.81,0.22-1.52,0.79-1.93,1.51c-0.44,0.77-0.62,1.58-0.68,2.46c-0.09,1.35,0.36,2.59,1.2,3.59c-1.39,0.62-2.78,1.23-4.08,2.03
			c-2,1.23-3.59,3.18-4.68,5.23c-1.87,3.55-2.36,7.54-2.52,11.5c-0.14,3.67,0.23,7.27,0.92,10.87c0.57,2.99,1.2,5.96,1.83,8.94
			C38.35,105.17,34.24,98.42,32.3,91.16z M71.95,63.84c0,0,0.03,0,0.08,0.01C72,63.85,71.97,63.85,71.95,63.84z M72.25,63.9
			c-0.04-0.01-0.06-0.02-0.09-0.02C72.21,63.88,72.24,63.89,72.25,63.9z M54.53,67.59C54.53,67.57,54.53,67.57,54.53,67.59
			L54.53,67.59z M54.83,66.64C54.79,66.75,54.81,66.7,54.83,66.64L54.83,66.64z M55.22,66.11c0.03-0.03,0.06-0.06,0.07-0.05
			C55.29,66.06,55.25,66.09,55.22,66.11z M74.8,113.83c-8.34,3.85-18.57,3.21-26.55-1.27c-0.24-0.14-0.48-0.29-0.72-0.43
			c0-0.04,0-0.09-0.01-0.13c-1.33-6.5-3.22-13.11-3.43-19.78c-0.18-5.46,0.21-13.04,5.12-16.52c1.87-1.33,4.15-2.04,6.2-3.05
			c0.04-0.02,0.09-0.06,0.14-0.09c0.23-0.02,0.45-0.08,0.65-0.21c0.57-0.38,1.24-0.75,1.96-0.71c0.75,0.04,1.31,0.66,1.88,1.08
			c1.34,0.98,2.67,1.61,4.36,1.69c1.55,0.07,3.2-0.13,4.58-0.9c0.66-0.37,1.21-0.9,1.76-1.42c3.2,0.56,6.56,1.55,9.39,3.13
			c1.44,0.8,2.76,1.83,3.73,3.17c1.21,1.67,1.51,3.66,1.55,5.67c0.16,7.24-0.47,14.49-0.57,21.73
			C82.02,109.11,78.78,111.99,74.8,113.83z M103.12,109.23c-0.08,1.83-0.45,3.64-1.04,5.38c-1.69,4.99-4.87,9.36-8.2,13.54
			c-0.52-4.43-1.1-8.85-1.44-13.3c-0.18-2.3-0.06-4.58-0.13-6.88c-0.04-1.43-0.12-2.85,0.07-4.27c0.03-0.25,0.08-0.49,0.13-0.74
			c1.55,0.01,3.1,0.06,4.65,0.21c1.54,0.15,3.54,0.17,4.77,1.25C103.2,105.54,103.19,107.67,103.12,109.23z"/>
	</g>
</g>
</svg>
